<?xml version="1.0" encoding="iso-8859-1"?>
<!-- Generator: Adobe Illustrator 19.0.0, SVG Export Plug-In . SVG Version: 6.00 Build 0)  -->
<svg version="1.1" id="Capa_1" xmlns="http://www.w3.org/2000/svg" xmlns:xlink="http://www.w3.org/1999/xlink" x="0px" y="0px"
	 viewBox="0 0 512 512" style="enable-background:new 0 0 512 512;" xml:space="preserve" fill="#e6b23a">
<g>
	<g>
		<path d="M508.765,96.113c-5.241-6.794-14.997-8.052-21.79-2.812l-47.541,36.672l-48.776,10.3l-58.196,0.043L294.7,94.557
			l-12.242-63.439c-1.626-8.426-9.777-13.938-18.199-12.311c-8.425,1.626-13.936,9.773-12.311,18.198l12.993,67.328
			c0.493,2.552,1.619,4.94,3.272,6.945c16.431,19.806,50.317,58.635,50.317,58.635s0,251.672,0,268.262
			c0,10.296,8.347,18.643,18.643,18.643c10.296,0,18.643-8.347,18.643-18.643V289.158h8.049v149.018
			c0,10.296,8.347,18.643,18.643,18.643c10.296,0,18.643-8.347,18.643-18.643c0-249.368,0-101.741,0-268.289l48.171-10.244
			c2.285-0.482,4.431-1.474,6.28-2.899l50.349-38.84C512.747,112.663,514.006,102.907,508.765,96.113z"/>
	</g>
</g>
<g>
	<g>
		<circle cx="360.046" cy="97.805" r="32.202"/>
	</g>
</g>
<g>
	<g>
		<path d="M295.436,471.619l-19.797-77.993c-0.235-0.929-0.547-1.836-0.934-2.712l-8.004-18.198c2.529,0,4.835,0,6.847,0
			c4.663,0,8.181-4.615,7.271-9.584c-1.689-9.229-2.902-15.862-4.415-24.131c-7.547,2.499-16.138,1.535-23.162-3.362
			c-5.399-3.764-43.651-30.428-48.785-34.008c-6.226-4.341-8.734-12.045-6.818-18.967l13.649-48.971l-1.096,49.251
			c-0.101,4.538,2.076,8.827,5.8,11.422l44.431,30.972c6.138,4.281,14.591,2.775,18.872-3.368
			c4.282-6.142,2.774-14.592-3.369-18.873L237.46,276.28l0.934-41.986l7.538,32.585l19.803,13.804l-11.572-63.243
			c-1.617-8.833-8.779-15.218-17.103-15.218c-10.72,0-18.259,0-30.158,0c-8.341,0-15.483,6.366-17.103,15.218l-26.658,145.69
			c-0.929,5.074,2.735,9.585,7.271,9.585c4.065,0,9.3,0,15.262,0v30.631l-11.965,30.167l5.588,34.45
			c1.474,9.085-0.529,17.925-5.016,25.183c7.523,0.55,14.556-3.812,17.36-10.881l27.455-69.224c0.806-2.032,1.22-4.199,1.22-6.385
			c0-10.918,0-19.057,0-33.94c2.851,0,5.705,0,8.541,0l13.559,30.827l19.443,76.598c2.354,9.277,11.78,14.88,21.049,12.528
			C292.181,490.315,297.789,480.891,295.436,471.619z"/>
	</g>
</g>
<g>
	<g>
		<path d="M162.405,470.703l-13.719-84.585c-0.299-1.846-0.861-3.638-1.668-5.326l-16.24-33.96c0,0-26.564-14.42-65.704-36.542
			c-7.609-4.33-11.301-12.915-9.829-21.066l10.517-57.688l3.931,56.685c0.363,5.224,3.315,9.918,7.866,12.509l54.297,30.893
			c7.51,4.272,17.055,1.645,21.322-5.857c4.271-7.506,1.648-17.053-5.857-21.322l-47.011-26.747l-3.351-48.321l12.091,36.631
			l16.205,9.22l4.129-52.189c1.127-14.241-9.505-26.7-23.746-27.827l-32.737-2.59c-14.241-1.127-26.7,9.505-27.827,23.746
			c-0.916,11.572-9.316,123.257-9.316,123.257v59.182l-33.623,66.15c-4.912,9.663-1.06,21.479,8.604,26.391
			c9.662,4.913,21.479,1.059,26.391-8.604L72.882,412.4c1.401-2.755,2.13-5.802,2.13-8.894v-64.41l8.498-0.114l8.618,18.02
			l18.259,38.183l13.268,81.803c1.734,10.697,11.812,17.967,22.517,16.233C156.872,491.485,164.139,481.403,162.405,470.703z"/>
	</g>
</g>
<g>
	<g>
		<circle cx="96.525" cy="143.933" r="33.99"/>
	</g>
</g>
<g>
	<g>
		<circle cx="223.742" cy="155.61" r="33.341"/>
	</g>
</g>
<g>
</g>
<g>
</g>
<g>
</g>
<g>
</g>
<g>
</g>
<g>
</g>
<g>
</g>
<g>
</g>
<g>
</g>
<g>
</g>
<g>
</g>
<g>
</g>
<g>
</g>
<g>
</g>
<g>
</g>
</svg>
